<?xml version="1.0" encoding="UTF-8" standalone="no"?>
<!-- Created with Inkscape (http://www.inkscape.org/) -->

<svg
   version="1.1"
   id="svg1"
   width="296.44678"
   height="189.84132"
   viewBox="0 0 296.44677 189.84132"
   sodipodi:docname="LOGO_RENARD.ai"
   xmlns:inkscape="http://www.inkscape.org/namespaces/inkscape"
   xmlns:sodipodi="http://sodipodi.sourceforge.net/DTD/sodipodi-0.dtd"
   xmlns="http://www.w3.org/2000/svg"
   xmlns:svg="http://www.w3.org/2000/svg">
  <defs
     id="defs1">
    <linearGradient
       x1="0"
       y1="0"
       x2="1"
       y2="0"
       gradientUnits="userSpaceOnUse"
       gradientTransform="matrix(81.932709,0,0,-81.932709,79.889175,153.42419)"
       spreadMethod="pad"
       id="linearGradient2">
      <stop
         style="stop-opacity:1;stop-color:#c7deeb"
         offset="0"
         id="stop1" />
      <stop
         style="stop-opacity:1;stop-color:#ffffff"
         offset="1"
         id="stop2" />
    </linearGradient>
    <linearGradient
       x1="0"
       y1="0"
       x2="1"
       y2="0"
       gradientUnits="userSpaceOnUse"
       gradientTransform="matrix(43.3302,0,0,-43.3302,79.889191,180.44801)"
       spreadMethod="pad"
       id="linearGradient4">
      <stop
         style="stop-opacity:1;stop-color:#c7deeb"
         offset="0"
         id="stop3" />
      <stop
         style="stop-opacity:1;stop-color:#ffffff"
         offset="1"
         id="stop4" />
    </linearGradient>
    <clipPath
       clipPathUnits="userSpaceOnUse"
       id="clipPath5">
      <path
         d="M 0,314.751 H 372.702 V 0 H 0 Z"
         transform="matrix(1.3333333,0,0,-1.3333333,0,419.668)"
         id="path5" />
    </clipPath>
    <clipPath
       clipPathUnits="userSpaceOnUse"
       id="clipPath6">
      <path
         d="M 79.8892,165.097 H 227.124 V 105.616 H 79.8892 Z"
         transform="translate(-215.0707,-156.9046)"
         id="path6" />
    </clipPath>
    <clipPath
       clipPathUnits="userSpaceOnUse"
       id="clipPath8">
      <path
         d="M 0,314.751 H 372.702 V 0 H 0 Z"
         transform="matrix(1.3333333,0,0,-1.3333333,0,419.668)"
         id="path8" />
    </clipPath>
    <linearGradient
       x1="0"
       y1="0"
       x2="1"
       y2="0"
       gradientUnits="userSpaceOnUse"
       gradientTransform="matrix(87.589439,0,0,-87.589439,122.3799,156.28304)"
       spreadMethod="pad"
       id="linearGradient9">
      <stop
         style="stop-opacity:1;stop-color:#f8b134"
         offset="0"
         id="stop8" />
      <stop
         style="stop-opacity:1;stop-color:#e5352b"
         offset="1"
         id="stop9" />
    </linearGradient>
    <clipPath
       clipPathUnits="userSpaceOnUse"
       id="clipPath11">
      <path
         d="M 0,314.751 H 372.702 V 0 H 0 Z"
         transform="translate(-196.3683,-124.0531)"
         id="path11" />
    </clipPath>
    <clipPath
       clipPathUnits="userSpaceOnUse"
       id="clipPath13">
      <path
         d="M 0,314.751 H 372.702 V 0 H 0 Z"
         transform="translate(-289.41361,-165.08631)"
         id="path13" />
    </clipPath>
    <linearGradient
       x1="0"
       y1="0"
       x2="1"
       y2="0"
       gradientUnits="userSpaceOnUse"
       gradientTransform="matrix(32.764751,0,0,-32.764751,234.06093,204.67754)"
       spreadMethod="pad"
       id="linearGradient14">
      <stop
         style="stop-opacity:1;stop-color:#da6428"
         offset="0"
         id="stop13" />
      <stop
         style="stop-opacity:1;stop-color:#d55127"
         offset="1"
         id="stop14" />
    </linearGradient>
    <clipPath
       clipPathUnits="userSpaceOnUse"
       id="clipPath15">
      <path
         d="m 234,221.113 h 24.977 V 198.83 H 234 Z"
         transform="translate(-242.2816,-198.83001)"
         id="path15" />
    </clipPath>
    <clipPath
       clipPathUnits="userSpaceOnUse"
       id="clipPath17">
      <path
         d="M 0,314.751 H 372.702 V 0 H 0 Z"
         transform="matrix(1.3333333,0,0,-1.3333333,0,419.668)"
         id="path17" />
    </clipPath>
    <clipPath
       clipPathUnits="userSpaceOnUse"
       id="clipPath19">
      <path
         d="M 0,314.751 H 372.702 V 0 H 0 Z"
         transform="translate(-237.2272,-200.33401)"
         id="path19" />
    </clipPath>
    <linearGradient
       x1="0"
       y1="0"
       x2="1"
       y2="0"
       gradientUnits="userSpaceOnUse"
       gradientTransform="matrix(31.000435,0,0,-31.000435,164.43285,194.16418)"
       spreadMethod="pad"
       id="linearGradient20">
      <stop
         style="stop-opacity:1;stop-color:#ee9c27"
         offset="0"
         id="stop19" />
      <stop
         style="stop-opacity:1;stop-color:#e78a27"
         offset="1"
         id="stop20" />
    </linearGradient>
    <clipPath
       clipPathUnits="userSpaceOnUse"
       id="clipPath21">
      <path
         d="m 168.74,210.551 h 26.349 V 194.104 H 168.74 Z"
         transform="translate(-195.0894,-197.1384)"
         id="path21" />
    </clipPath>
    <clipPath
       clipPathUnits="userSpaceOnUse"
       id="clipPath23">
      <path
         d="M 0,314.751 H 372.702 V 0 H 0 Z"
         transform="matrix(1.3333333,0,0,-1.3333333,0,419.668)"
         id="path23" />
    </clipPath>
    <clipPath
       clipPathUnits="userSpaceOnUse"
       id="clipPath25">
      <path
         d="M 0,314.751 H 372.702 V 0 H 0 Z"
         transform="translate(-169.16031,-177.4368)"
         id="path25" />
    </clipPath>
    <linearGradient
       x1="0"
       y1="0"
       x2="1"
       y2="0"
       gradientUnits="userSpaceOnUse"
       gradientTransform="matrix(107.4352,0,0,-107.4352,166.50616,140.67381)"
       spreadMethod="pad"
       id="linearGradient26">
      <stop
         style="stop-opacity:1;stop-color:#ed9c28"
         offset="0"
         id="stop25" />
      <stop
         style="stop-opacity:1;stop-color:#d55127"
         offset="1"
         id="stop26" />
    </linearGradient>
    <linearGradient
       x1="0"
       y1="0"
       x2="1"
       y2="0"
       gradientUnits="userSpaceOnUse"
       gradientTransform="matrix(81.484009,-24.598946,-24.598946,-81.484009,166.79283,130.15622)"
       spreadMethod="pad"
       id="linearGradient28">
      <stop
         style="stop-opacity:1;stop-color:#c7deeb"
         offset="0"
         id="stop27" />
      <stop
         style="stop-opacity:1;stop-color:#ffffff"
         offset="1"
         id="stop28" />
    </linearGradient>
    <clipPath
       clipPathUnits="userSpaceOnUse"
       id="clipPath29">
      <path
         d="M 0,314.751 H 372.702 V 0 H 0 Z"
         transform="matrix(1.3333333,0,0,-1.3333333,0,419.668)"
         id="path29" />
    </clipPath>
    <clipPath
       clipPathUnits="userSpaceOnUse"
       id="clipPath31">
      <path
         d="M 0,314.751 H 372.702 V 0 H 0 Z"
         transform="translate(-268.8145,-160.40811)"
         id="path31" />
    </clipPath>
    <clipPath
       clipPathUnits="userSpaceOnUse"
       id="clipPath33">
      <path
         d="M 0,314.751 H 372.702 V 0 H 0 Z"
         transform="translate(-248.31921,-145.1241)"
         id="path33" />
    </clipPath>
    <clipPath
       clipPathUnits="userSpaceOnUse"
       id="clipPath35">
      <path
         d="M 0,314.751 H 372.702 V 0 H 0 Z"
         transform="translate(-241.0015,-137.2014)"
         id="path35" />
    </clipPath>
    <clipPath
       clipPathUnits="userSpaceOnUse"
       id="clipPath37">
      <path
         d="M 0,314.751 H 372.702 V 0 H 0 Z"
         transform="translate(-242.71381,-137.28651)"
         id="path37" />
    </clipPath>
    <clipPath
       clipPathUnits="userSpaceOnUse"
       id="clipPath38">
      <path
         d="m 242.195,140.192 h 2.737 v -3.009 h -2.737 z"
         transform="translate(-242.19681,-138.6198)"
         id="path38" />
    </clipPath>
    <clipPath
       clipPathUnits="userSpaceOnUse"
       id="clipPath40">
      <path
         d="M 0,314.751 H 372.702 V 0 H 0 Z"
         transform="matrix(1.3333333,0,0,-1.3333333,0,419.668)"
         id="path40" />
    </clipPath>
    <clipPath
       clipPathUnits="userSpaceOnUse"
       id="clipPath42">
      <path
         d="M 0,314.751 H 372.702 V 0 H 0 Z"
         transform="translate(-189.38661,-130.95681)"
         id="path42" />
    </clipPath>
    <linearGradient
       x1="0"
       y1="0"
       x2="1"
       y2="0"
       gradientUnits="userSpaceOnUse"
       gradientTransform="matrix(112.70677,0,0,-112.70677,163.02338,134.18915)"
       spreadMethod="pad"
       id="linearGradient43">
      <stop
         style="stop-opacity:1;stop-color:#652480"
         offset="0"
         id="stop42" />
      <stop
         style="stop-opacity:1;stop-color:#1e183a"
         offset="1"
         id="stop43" />
    </linearGradient>
    <clipPath
       clipPathUnits="userSpaceOnUse"
       id="clipPath45">
      <path
         d="M 0,314.751 H 372.702 V 0 H 0 Z"
         transform="translate(-205.76001,-113.38851)"
         id="path45" />
    </clipPath>
    <clipPath
       clipPathUnits="userSpaceOnUse"
       id="clipPath47">
      <path
         d="M 0,314.751 H 372.702 V 0 H 0 Z"
         transform="translate(-220.50631,-104.11491)"
         id="path47" />
    </clipPath>
    <clipPath
       clipPathUnits="userSpaceOnUse"
       id="clipPath49">
      <path
         d="M 0,314.751 H 372.702 V 0 H 0 Z"
         transform="translate(-219.64041,-111.1734)"
         id="path49" />
    </clipPath>
    <clipPath
       clipPathUnits="userSpaceOnUse"
       id="clipPath51">
      <path
         d="M 0,314.751 H 372.702 V 0 H 0 Z"
         transform="translate(-230.99731,-117.8475)"
         id="path51" />
    </clipPath>
    <clipPath
       clipPathUnits="userSpaceOnUse"
       id="clipPath52">
      <path
         d="m 213.652,120.38 h 15.103 v -2.55 h -15.103 z"
         transform="translate(-228.19911,-119.79411)"
         id="path52" />
    </clipPath>
    <clipPath
       clipPathUnits="userSpaceOnUse"
       id="clipPath54">
      <path
         d="M 0,314.751 H 372.702 V 0 H 0 Z"
         transform="matrix(1.3333333,0,0,-1.3333333,0,419.668)"
         id="path54" />
    </clipPath>
    <linearGradient
       x1="0"
       y1="0"
       x2="1"
       y2="0"
       gradientUnits="userSpaceOnUse"
       gradientTransform="matrix(109.44781,0,0,-109.44781,162.83691,177.24207)"
       spreadMethod="pad"
       id="linearGradient57">
      <stop
         style="stop-opacity:1;stop-color:#462a5c"
         offset="0"
         id="stop54" />
      <stop
         style="stop-opacity:1;stop-color:#462a5c"
         offset="0.24347805"
         id="stop55" />
      <stop
         style="stop-opacity:1;stop-color:#584b5e"
         offset="0.513865"
         id="stop56" />
      <stop
         style="stop-opacity:1;stop-color:#1e1f1d"
         offset="1"
         id="stop57" />
    </linearGradient>
    <clipPath
       clipPathUnits="userSpaceOnUse"
       id="clipPath59">
      <path
         d="M 0,314.751 H 372.702 V 0 H 0 Z"
         transform="translate(-172.50051,-146.2198)"
         id="path59" />
    </clipPath>
    <clipPath
       clipPathUnits="userSpaceOnUse"
       id="clipPath60">
      <path
         d="m 170.602,201.992 h 52.443 V 146.22 h -52.443 z"
         transform="translate(-183.24921,-170.9926)"
         id="path60" />
    </clipPath>
    <clipPath
       clipPathUnits="userSpaceOnUse"
       id="clipPath62">
      <path
         d="M 0,314.751 H 372.702 V 0 H 0 Z"
         transform="matrix(1.3333333,0,0,-1.3333333,0,419.668)"
         id="path62" />
    </clipPath>
    <clipPath
       clipPathUnits="userSpaceOnUse"
       id="clipPath64">
      <path
         d="M 0,314.751 H 372.702 V 0 H 0 Z"
         transform="translate(-202.54621,-191.8938)"
         id="path64" />
    </clipPath>
    <linearGradient
       x1="0"
       y1="0"
       x2="1"
       y2="0"
       gradientUnits="userSpaceOnUse"
       gradientTransform="matrix(120.97015,0,0,-120.97015,172.50047,158.62914)"
       spreadMethod="pad"
       id="linearGradient65">
      <stop
         style="stop-opacity:1;stop-color:#652480"
         offset="0"
         id="stop64" />
      <stop
         style="stop-opacity:1;stop-color:#1e183a"
         offset="1"
         id="stop65" />
    </linearGradient>
    <clipPath
       clipPathUnits="userSpaceOnUse"
       id="clipPath66">
      <path
         d="m 165.174,158.098 h 110.64 v -21.061 h -110.64 z"
         transform="translate(-165.17391,-145.3494)"
         id="path66" />
    </clipPath>
    <clipPath
       clipPathUnits="userSpaceOnUse"
       id="clipPath68">
      <path
         d="M 0,314.751 H 372.702 V 0 H 0 Z"
         transform="matrix(1.3333333,0,0,-1.3333333,0,419.668)"
         id="path68" />
    </clipPath>
  </defs>
  <sodipodi:namedview
     id="namedview1"
     pagecolor="#ffffff"
     bordercolor="#666666"
     borderopacity="1.0"
     inkscape:showpageshadow="2"
     inkscape:pageopacity="0.0"
     inkscape:pagecheckerboard="0"
     inkscape:deskcolor="#d1d1d1" />
  <g
     id="layer-MC0"
     inkscape:groupmode="layer"
     inkscape:label="Calque 1"
     transform="translate(-99.484956,-111.79826)">
    <path
       id="path2"
       d="m 149.48,201.23 v -0.075 c 8.618,-5.24 9.419,-13.774 11.615,-19.099 v 0 c -18.552,39.165 -79.766,9.36 -81.206,-21.934 v 0 c 8.395,0.136 19.308,2.998 31.464,-6.581 v 0 c 9.628,-7.988 18.951,-15.755 30.702,-15.541 v 0 c -4.576,-2.68 -10.124,-3.365 -16.687,-1.963 v 0 c 17.637,-26.817 40.675,-33.716 71,-13.742 v 0 c -4.474,-7.379 -11.26,-12.729 -19.63,-16.687 v 0 c 26.999,7.255 48.73,20.146 50.386,54.514 v 0 c -12.107,-5.895 -21.58,-3.616 -28.793,5.689 v 0 c -0.013,-2.277 0.706,-4.453 2.198,-6.524 v 0 c -8.746,9.577 -39.167,41.95 -50.695,41.954 v 0 c -0.12,0 -0.237,-0.004 -0.354,-0.011"
       transform="matrix(1.3333333,0,0,-1.3333333,0,419.668)"
       style="fill:url(#linearGradient2);stroke:none"
       inkscape:export-filename="path2.svg"
       inkscape:export-xdpi="96"
       inkscape:export-ydpi="96" />
    <g
       opacity="0.429993"
       id="g4"
       clip-path="url(#clipPath5)">
      <path
         d="m 131.324,200.755 c -23.558,0.003 -50.485,-19.981 -51.435,-40.614 0.015,0 0.029,0.001 0.044,0.001 7.492,17.272 33.474,32.062 56.609,32.063 8.047,0 15.747,-1.789 22.208,-5.884 -6.553,10.24 -16.639,14.432 -27.426,14.434"
         transform="matrix(1.3333333,0,0,-1.3333333,0,419.668)"
         style="fill:url(#linearGradient4);stroke:none"
         id="path4" />
    </g>
    <g
       opacity="0.580002"
       id="g7"
       clip-path="url(#clipPath8)">
      <path
         d="m 0,0 c -6.502,-9.374 -16.215,-16.78 -27.336,-23.322 7.016,6.043 12.135,13.004 14.486,21.307 -23.921,-27.32 -20.673,-33.948 -44.807,-12.789 6.7,0.394 -8.67,13.275 -21.548,17.557 -9.039,-0.162 -22.182,2.429 -26.376,3.68 -14.812,4.415 -21.532,-0.584 -29.581,-2.953 -0.005,-0.085 -0.016,-0.17 -0.02,-0.255 8.395,0.136 19.309,2.998 31.465,-6.581 9.627,-7.989 18.95,-15.754 30.701,-15.541 -4.576,-2.68 -10.123,-3.366 -16.686,-1.963 17.636,-26.816 40.674,-33.716 71,-13.742 -4.474,-7.379 -11.261,-12.728 -19.632,-16.687 27,7.255 48.731,20.147 50.387,54.514 C 7.699,1.105 3.691,0.059 0,0"
         style="fill:#ffffff;fill-opacity:1;fill-rule:nonzero;stroke:none"
         transform="matrix(1.3333333,0,0,-1.3333333,286.76093,210.46187)"
         clip-path="url(#clipPath6)"
         id="path7" />
    </g>
    <path
       id="path9"
       d="m 161.605,180.938 c -7.416,10.483 -20.387,10.324 -20.387,10.324 v 0 c 15.487,-7.124 18.814,-26.165 18.814,-26.165 v 0 c -6.981,14.724 -18.864,9.095 -18.864,9.095 v 0 c 9.326,-4.181 14.656,-20.159 14.656,-20.159 v 0 c -4.58,5.827 -19.958,5.624 -19.958,5.624 v 0 c 6.107,-4.143 11.016,-18.322 11.016,-18.322 v 0 c -11.888,-0.327 -24.502,3.604 -24.502,3.604 v 0 c 9.696,-7.511 19.729,-6.974 19.729,-6.974 v 0 c -6.517,-3.806 -16.686,-1.962 -16.686,-1.962 v 0 c 5.37,-9.042 11.935,-14.277 11.935,-14.277 v 0 c 17.718,-13.864 26.563,-12.7 72.611,-2.749 v 0 c 0,0 -14.411,45.854 -17.137,48.035 v 0 c -2.727,2.182 -5.07,4.721 -22.386,20.591 v 0 c -13.632,12.493 -20.966,13.552 -20.966,13.552 v 0 c 6.359,-4.887 11.112,-16.843 12.125,-20.217"
       transform="matrix(1.3333333,0,0,-1.3333333,0,419.668)"
       style="fill:url(#linearGradient9);stroke:none" />
    <path
       id="path10"
       d="M 0,0 C 0.443,0 0.883,-0.167 1.221,-0.492 1.812,-1.062 1.93,-1.968 1.503,-2.671 -0.687,-6.282 -3.428,-9.499 -6.769,-12.36 21.324,-1.092 27.514,16.562 28.82,33.283 20.703,30.015 13.552,30.337 7.444,34.229 7.606,34.048 7.746,33.892 7.859,33.763 8.48,33.063 8.444,32.001 7.779,31.344 7.112,30.686 6.05,30.666 5.358,31.297 4.339,32.226 3.469,33.19 2.751,34.184 -7.493,45.443 -27.56,66.004 -39.784,73.015 c 2.612,-3.508 3.828,-7.357 4.88,-10.69 0.411,-1.301 0.805,-2.549 1.244,-3.62 0.174,-0.367 0.342,-0.737 0.508,-1.114 0.381,-0.872 10e-4,-1.889 -0.859,-2.296 -0.863,-0.406 -1.889,-0.056 -2.319,0.792 -0.194,0.38 -0.374,0.776 -0.544,1.187 -6.577,13.809 -19.731,19.951 -36.279,16.879 -20.561,-3.819 -39.305,-20.443 -41.398,-36.253 0.785,0.042 1.596,0.097 2.432,0.154 7.824,0.529 17.564,1.19 28.193,-7.185 0.011,-0.009 0.106,-0.088 0.118,-0.097 9.462,-7.851 18.452,-15.266 29.463,-15.067 h 0.032 c 0.787,0 1.479,-0.523 1.693,-1.283 0.217,-0.77 -0.114,-1.589 -0.805,-1.993 -3.964,-2.321 -8.602,-3.258 -13.819,-2.795 8.187,-11.319 17.379,-18.159 27.362,-20.35 11.494,-2.52 24.582,0.986 38.915,10.426 C -0.672,-0.096 -0.335,0 0,0 m -19.632,-20.204 c -0.721,0 -1.39,0.445 -1.65,1.151 -0.314,0.855 0.076,1.808 0.898,2.197 5.223,2.47 9.541,5.356 13.037,8.724 -11.983,-6.221 -23.146,-8.246 -33.288,-6.02 -11.851,2.602 -22.562,11.069 -31.833,25.169 -0.393,0.596 -0.386,1.37 0.017,1.959 0.402,0.588 1.116,0.877 1.819,0.727 3.044,-0.65 5.875,-0.823 8.468,-0.518 -8.846,2.395 -16.465,8.719 -23.89,14.879 -9.613,7.579 -18.229,6.994 -25.827,6.48 -1.595,-0.108 -3.102,-0.21 -4.57,-0.234 -0.456,-0.002 -0.952,0.186 -1.29,0.534 -0.338,0.348 -0.517,0.821 -0.495,1.306 0.745,16.175 18.78,36.695 44.441,41.46 12.741,2.367 23.674,-0.257 31.598,-7.28 -1.336,1.944 -3.113,3.754 -5.605,5.269 -0.557,0.339 -0.858,0.939 -0.845,1.547 -0.017,0.936 0.708,1.728 1.651,1.786 0.137,0.009 0.276,0.013 0.416,0.013 10.655,0 34.355,-23.611 46.816,-36.86 0.116,0.615 0.555,1.132 1.163,1.338 0.71,0.239 1.493,0.005 1.955,-0.588 6.874,-8.869 15.585,-10.563 26.632,-5.185 0.559,0.271 1.218,0.228 1.737,-0.113 0.52,-0.342 0.819,-0.932 0.789,-1.553 -1.816,-37.708 -27.148,-49.534 -51.686,-56.128 -0.153,-0.041 -0.307,-0.06 -0.458,-0.06"
       style="fill:#493f64;fill-opacity:1;fill-rule:nonzero;stroke:none"
       transform="matrix(1.3333333,0,0,-1.3333333,261.8244,254.26387)"
       clip-path="url(#clipPath11)" />
    <path
       id="path12"
       d="m 0,0 c 6.116,2.827 5.169,5.163 -1.489,5.77 -0.799,0.073 -1.754,0.107 -2.858,0.107 -3.301,0 -7.94,-0.308 -13.784,-0.822 -0.346,4.064 -0.734,8.622 -1.089,12.796 -0.122,1.433 -0.448,2.742 -0.919,3.939 1.396,10.169 1.04,24.411 -7.259,37.945 l -1.619,2.64 -26.658,-22.987 c -3.616,1.117 -7.12,2.234 -10.028,3.222 -2.924,0.993 -5.572,1.364 -7.895,1.364 -6.857,0 -10.893,-3.231 -10.893,-3.231 0,0 -3.325,-2.194 -7.975,-5.216 l -30.934,17.916 -1.229,-2.88 c -1.925,-4.517 -3.071,-8.961 -3.665,-13.24 8.948,-5.339 20.926,-15.87 35.821,-31.509 0.453,0.123 0.919,0.186 1.389,0.186 1.642,0 3.161,-0.743 4.172,-2.043 3.591,-4.633 7.603,-6.885 12.266,-6.885 2.977,0 6.358,0.911 10.05,2.709 0.715,0.347 1.512,0.53 2.306,0.53 1.032,0 2.035,-0.3 2.902,-0.87 1.55,-1.02 2.457,-2.805 2.368,-4.659 -0.876,-18.181 -6.93,-31.985 -18.509,-42.2 -10.893,-9.612 -24.842,-14.217 -35.772,-17.154 -0.448,-0.121 -0.911,-0.183 -1.377,-0.183 -0.364,0 -0.719,0.051 -1.067,0.124 2.225,-1.931 4.798,-3.51 7.728,-4.742 6.969,-2.931 15.585,-3.75 24.932,-3.75 4.496,0 9.16,0.189 13.892,0.424 14.571,0.725 28.468,1.818 38.361,7.164 11.217,6.06 16.316,17.027 15.588,33.525 -0.094,2.13 -0.298,4.204 -0.569,6.243 0.97,9.679 -2.872,16.169 -2.872,16.169 -0.54,0.047 -1.054,0.084 -1.579,0.124 -0.164,0.378 -0.324,0.759 -0.496,1.131 1.171,0.677 1.834,1.212 1.919,1.283 C -16.749,-7.023 -6.09,-2.814 0,0 m -117.933,-58.944 c -0.215,-0.035 -0.429,-0.06 -0.644,-0.093 0.215,-0.329 0.427,-0.661 0.653,-0.978 -0.038,0.36 -0.044,0.719 -0.009,1.071 m 3.605,-1.142 c 0.26,-0.706 0.93,-1.152 1.65,-1.152 0.151,0 0.306,0.02 0.458,0.061 24.539,6.594 49.871,18.42 51.687,56.128 0.029,0.62 -0.269,1.211 -0.789,1.553 -0.293,0.192 -0.63,0.29 -0.968,0.29 -0.262,0 -0.525,-0.059 -0.769,-0.177 -4.189,-2.04 -8.042,-3.062 -11.587,-3.062 -5.802,0 -10.778,2.741 -15.046,8.247 -0.341,0.438 -0.858,0.68 -1.392,0.68 -0.187,0 -0.377,-0.03 -0.562,-0.092 -0.608,-0.206 -1.048,-0.723 -1.163,-1.338 -9.116,9.692 -24.241,24.918 -35.879,32.401 -0.549,-8.544 1.009,-16.246 2.951,-22.21 -0.866,-2.133 -0.806,-3.631 -0.806,-3.631 l 2.158,-25.339 -0.01,-0.007 c 0,0 0.01,-0.005 0.011,-0.006 l 0.001,-0.005 h 0.008 c 0.067,-0.036 0.662,-0.356 1.724,-0.778 -0.168,-0.66 -0.299,-1.339 -0.445,-2.01 -2.085,-0.816 -3.256,-1.415 -3.256,-1.415 -0.08,-6.634 0.737,-11.861 1.885,-15.912 0.343,-7.069 1.675,-13.008 4.016,-17.87 6.383,0.765 13.08,2.942 20.059,6.565 -3.496,-3.369 -7.815,-6.254 -13.037,-8.724 -0.822,-0.389 -1.212,-1.342 -0.899,-2.197 m -11.165,4.026 c 0.477,0 0.962,0.035 1.443,0.052 -2.178,4.966 -3.469,10.827 -3.834,17.591 -1.34,4.889 -1.982,10.441 -1.909,16.51 0.015,1.277 0.737,2.441 1.874,3.023 0.013,0.006 0.096,0.049 0.245,0.121 -0.089,0.287 -0.142,0.589 -0.154,0.897 -10e-4,0.012 -10e-4,0.023 -0.002,0.035 l -2.142,25.151 c -0.004,0.051 -0.007,0.102 -0.009,0.153 -0.013,0.315 -0.029,1.781 0.614,3.837 -1.968,6.42 -3.494,14.802 -2.612,24.096 -2.93,1.577 -5.545,2.506 -7.646,2.506 -0.14,0 -0.28,-0.004 -0.416,-0.013 -0.943,-0.058 -1.668,-0.85 -1.651,-1.787 -0.014,-0.608 0.287,-1.207 0.845,-1.546 2.491,-1.515 4.268,-3.325 5.605,-5.269 -6.019,5.334 -13.772,8.13 -22.735,8.13 -2.839,0 -5.799,-0.28 -8.864,-0.85 -25.66,-4.766 -43.696,-25.285 -44.44,-41.461 -0.023,-0.484 0.157,-0.957 0.495,-1.305 0.335,-0.346 0.827,-0.534 1.282,-0.534 h 0.008 c 1.468,0.024 2.975,0.126 4.57,0.234 1.965,0.133 3.997,0.271 6.098,0.271 6.022,0 12.602,-1.132 19.728,-6.751 7.425,-6.16 15.045,-12.484 23.891,-14.88 -0.828,-0.097 -1.679,-0.145 -2.554,-0.145 -1.867,0 -3.841,0.221 -5.914,0.664 -0.124,0.026 -0.248,0.039 -0.371,0.039 -0.574,0 -1.118,-0.282 -1.449,-0.766 -0.403,-0.589 -0.41,-1.364 -0.017,-1.959 9.272,-14.1 19.983,-22.567 31.833,-25.169 2.661,-0.584 5.39,-0.875 8.188,-0.875 M 7.465,4.182 c 0.724,-4.188 -4.353,-6.535 -6.021,-7.306 -4.321,-1.997 -10.871,-4.67 -14.46,-6.114 1.185,-2.585 3.364,-8.568 2.666,-16.467 0.279,-2.177 0.458,-4.194 0.544,-6.153 0.792,-17.949 -4.897,-29.955 -17.39,-36.705 -10.527,-5.688 -24.846,-6.828 -39.826,-7.573 -4.267,-0.212 -9.274,-0.429 -14.063,-0.429 -11.4,0 -19.746,1.278 -26.266,4.02 -6.531,2.746 -11.518,7.133 -14.96,13.091 -1.069,-0.077 -2.131,-0.123 -3.182,-0.123 -3.04,0 -6.048,0.322 -8.942,0.957 -12.779,2.805 -24.224,11.779 -34.016,26.668 -1.184,1.797 -1.163,4.105 0.05,5.878 0.081,0.119 0.167,0.235 0.257,0.346 -4.62,2.935 -8.932,6.51 -13.168,10.024 -6.686,5.258 -12.606,5.968 -17.516,5.969 -1.979,0 -3.949,-0.134 -5.86,-0.263 -1.639,-0.111 -3.186,-0.216 -4.75,-0.242 -0.02,0 -0.047,0 -0.066,0 -1.431,0 -2.819,0.583 -3.808,1.603 -1.011,1.043 -1.551,2.471 -1.482,3.915 0.414,9.018 5.485,18.984 13.912,27.344 8.965,8.894 20.826,15.078 33.399,17.413 3.247,0.604 6.445,0.909 9.506,0.909 4.777,0 9.295,-0.749 13.443,-2.207 0.85,1.508 2.422,2.559 4.272,2.672 0.208,0.014 0.423,0.02 0.637,0.02 2.247,0 4.959,-0.789 8.124,-2.351 0.675,4.16 1.843,8.463 3.707,12.835 l 1.228,2.88 c 0.387,0.906 1.144,1.604 2.079,1.915 0.354,0.118 0.721,0.176 1.087,0.176 0.599,0 1.195,-0.156 1.724,-0.463 l 29.105,-16.857 c 3.25,2.119 5.574,3.649 6.081,3.983 0.979,0.739 5.561,3.869 12.892,3.868 2.952,0 5.98,-0.521 9.002,-1.547 2.206,-0.75 4.931,-1.631 8.119,-2.628 l 25.213,21.741 c 0.629,0.542 1.428,0.835 2.247,0.835 0.176,0 0.353,-0.014 0.53,-0.041 0.997,-0.156 1.876,-0.741 2.404,-1.602 l 1.618,-2.639 c 8.708,-14.201 9.13,-29.092 7.847,-39.363 0.432,-1.301 0.709,-2.652 0.826,-4.028 l 0.585,-6.861 0.213,-2.51 c 4.706,0.375 8.066,0.546 10.647,0.546 1.236,0 2.273,-0.039 3.171,-0.121 1.954,-0.178 7.9,-0.72 8.641,-5.015"
       style="fill:#ffffff;fill-opacity:1;fill-rule:nonzero;stroke:none"
       transform="matrix(1.3333333,0,0,-1.3333333,385.8848,199.55293)"
       clip-path="url(#clipPath13)" />
    <path
       id="path14"
       d="m 234.061,201.159 c 5.923,-1.448 11.779,-3.498 17.459,-5.306 v 0 c 4.416,-1.406 8.992,-3.213 12.538,-6.56 v 0 c 0.802,-0.756 1.556,-1.587 2.242,-2.481 v 0 c 2.773,23.301 -6.331,35.731 -6.331,35.731 v 0 z"
       transform="matrix(1.3333333,0,0,-1.3333333,0,419.668)"
       style="fill:url(#linearGradient14);stroke:none" />
    <g
       id="g16"
       clip-path="url(#clipPath17)">
      <path
         d="M 0,0 C 7.595,9.074 16.695,20.258 16.695,20.258 L 15.315,22.283 -8.281,2.343 C -5.502,1.666 -2.738,0.858 0,0"
         style="fill:#f5c274;fill-opacity:1;fill-rule:nonzero;stroke:none"
         transform="matrix(1.3333333,0,0,-1.3333333,323.04213,154.56133)"
         clip-path="url(#clipPath15)"
         id="path16" />
    </g>
    <path
       id="path18"
       d="m 0,0 21.75,18.754 c 5.488,-10.504 5.967,-21.426 5.059,-29.775 0.007,-0.007 0.015,-0.013 0.022,-0.019 1.841,-1.737 3.458,-3.85 4.479,-6.282 0.012,-0.029 0.021,-0.058 0.033,-0.086 2.012,10.185 2.875,26.539 -6.587,41.97 L 23.137,27.201 -6.568,1.588 C -4.37,1.15 -2.179,0.605 0,0"
       style="fill:#493f64;fill-opacity:1;fill-rule:nonzero;stroke:none"
       transform="matrix(1.3333333,0,0,-1.3333333,316.30293,152.556)"
       clip-path="url(#clipPath19)" />
    <path
       id="path20"
       d="m 167.179,174.561 c 0.521,0.964 1.165,1.914 1.981,2.876 v 0 c 3.143,3.707 6.804,6.921 10.564,9.837 v 0 c 4.941,3.832 10.312,6.976 15.709,10.061 v 0 l -28.096,16.432 c -4.86,-17.31 -2.702,-30.973 -0.158,-39.206"
       transform="matrix(1.3333333,0,0,-1.3333333,0,419.668)"
       style="fill:url(#linearGradient20);stroke:none" />
    <g
       id="g22"
       clip-path="url(#clipPath23)">
      <path
         d="M 0,0 -26.349,13.413 -5.198,-3.034 C -3.478,-2.001 -1.741,-0.996 0,0"
         style="fill:#f5c274;fill-opacity:1;fill-rule:nonzero;stroke:none"
         transform="matrix(1.3333333,0,0,-1.3333333,260.1192,156.8168)"
         clip-path="url(#clipPath21)"
         id="path22" />
    </g>
    <path
       id="path24"
       d="M 0,0 C 0.019,0.023 0.04,0.045 0.059,0.067 -2.69,8.293 -4.83,20.403 -0.42,33.115 L 24.329,18.781 c 1.864,1.077 3.737,2.139 5.603,3.209 L -3.179,41.167 -4.408,38.287 C -12.253,19.889 -7.371,2.605 -3.419,-6.614 -2.817,-4.262 -1.835,-2.164 0,0"
       style="fill:#493f64;fill-opacity:1;fill-rule:nonzero;stroke:none"
       transform="matrix(1.3333333,0,0,-1.3333333,225.54707,183.0856)"
       clip-path="url(#clipPath25)" />
    <path
       id="path26"
       d="m 232.417,183.688 -29.15,-1.449 -1.831,1.01 c -2.058,-1.1 -4.081,-2.289 -6.123,-3.463 v 0 c -3.936,-2.265 -7.92,-4.44 -11.734,-6.95 v 0 c -3.857,-2.538 -7.18,-5.385 -10.164,-9.085 v 0 c -0.866,-1.074 -1.708,-2.169 -2.548,-3.263 v 0 c 0.953,-2.061 1.65,-3.144 1.65,-3.144 v 0 l -6.011,-14.5 0.687,-15.573 3.971,-17.519 15.435,-13.769 44.038,-0.709 29.608,6.534 10.459,10.082 3.237,25.189 -7.177,23.546 c 0.388,0.957 0.747,1.899 1.087,2.83 v 0 c -1.324,2.113 -2.456,4.386 -3.676,6.591 v 0 c -2.935,1.499 -5.812,3.856 -7.516,5.044 v 0 c -3.594,2.51 -7.355,5.066 -10.797,7.947 v 0 c -1.434,0.482 -2.844,0.999 -4.217,1.465 v 0 c -1.82,0.617 -3.678,1.098 -5.535,1.571 v 0 z"
       transform="matrix(1.3333333,0,0,-1.3333333,0,419.668)"
       style="fill:url(#linearGradient26);stroke:none" />
    <g
       id="g28"
       clip-path="url(#clipPath29)">
      <path
         d="m 237.435,120.781 c 0,0 -2.339,9.337 -7.603,10.481 l -8.479,-19.858 -9.858,18.351 c -5.141,-1.661 -6.98,-10.611 -6.98,-10.611 -31.024,13.221 -35.093,-4.698 -35.093,-4.698 l 7.868,-13.107 17.398,-5.884 27.382,-0.325 27.234,3.041 16.804,7.585 6.68,13.83 c 0,0 -5.629,17.437 -35.353,1.195"
         transform="matrix(1.3333333,0,0,-1.3333333,0,419.668)"
         style="fill:url(#linearGradient28);stroke:none"
         id="path28" />
    </g>
    <path
       id="path30"
       d="m 0,0 c 0.096,0.184 0.26,0.505 0.472,0.949 -1.191,1.57 -2.194,3.296 -3.152,5.06 -0.152,-0.383 -0.3,-0.747 -0.437,-1.07 -2.257,3.159 -4.854,6.058 -7.8,8.654 -0.553,0.487 -1.121,0.954 -1.698,1.409 -0.648,0.452 -1.3,0.906 -1.956,1.363 -0.369,-0.892 -0.663,-1.789 -0.747,-2.693 -0.072,-0.781 -0.007,-1.573 0.119,-2.367 0.255,-0.281 0.515,-0.556 0.757,-0.852 0.368,-0.45 0.708,-0.931 1.022,-1.425 0.361,-0.283 0.677,-0.638 0.972,-1.047 8.835,-8.594 14.322,-20.817 14.969,-35.477 1.34,-30.372 -18.682,-33.645 -49.38,-35.171 -30.699,-1.527 -50.921,-0.255 -52.261,30.117 -0.698,15.831 4.418,29.446 13.721,39.062 0.498,0.903 0.901,1.867 1.162,2.952 0.082,0.341 0.153,0.683 0.216,1.026 -0.27,0.732 -0.525,1.472 -0.816,2.19 -0.132,-0.086 -0.267,-0.165 -0.399,-0.252 -1.83,-1.204 -3.536,-2.482 -5.147,-3.884 -1.933,-2.186 -3.672,-4.509 -5.203,-6.965 -0.148,0.296 -0.304,0.616 -0.462,0.946 -1.129,-1.43 -2.229,-2.884 -3.347,-4.318 0.37,-0.699 0.705,-1.297 0.984,-1.777 -4.094,-8.58 -5.985,-18.453 -5.51,-29.219 0.727,-16.498 6.769,-26.911 18.471,-31.832 10.321,-4.34 24.253,-4.049 38.824,-3.325 14.57,0.725 28.468,1.818 38.361,7.163 11.217,6.061 16.316,17.027 15.588,33.525 C 6.873,-17.053 4.373,-7.86 0,0"
       style="fill:#493f64;fill-opacity:1;fill-rule:nonzero;stroke:none"
       transform="matrix(1.3333333,0,0,-1.3333333,358.41933,205.79053)"
       clip-path="url(#clipPath31)" />
    <path
       id="path32"
       d="m 0,0 c 0,0 5.744,-2.269 5.249,-8.62 -0.494,-6.351 -7.224,-6.807 -8.986,-7.016 -1.761,-0.209 -8.556,0.791 -7.005,8.289 C -9.192,0.151 -3.019,0.701 0,0"
       style="fill:#493f64;fill-opacity:1;fill-rule:nonzero;stroke:none"
       transform="matrix(1.3333333,0,0,-1.3333333,331.09227,226.1692)"
       clip-path="url(#clipPath33)" />
    <path
       id="path34"
       d="M 0,0 C 0.119,-2.691 2.199,-4.773 4.646,-4.651 7.094,-4.53 8.982,-2.25 8.863,0.441 8.744,3.131 6.664,5.214 4.217,5.092 1.769,4.97 -0.119,2.691 0,0"
       style="fill:#f8b134;fill-opacity:1;fill-rule:nonzero;stroke:none"
       transform="matrix(1.3333333,0,0,-1.3333333,321.33533,236.7328)"
       clip-path="url(#clipPath35)" />
    <path
       id="path36"
       d="M 0,0 C 0.073,-1.661 1.358,-2.947 2.869,-2.872 4.38,-2.797 5.545,-1.389 5.472,0.272 5.399,1.933 4.114,3.219 2.603,3.144 1.092,3.069 -0.073,1.661 0,0"
       style="fill:#1e1f1d;fill-opacity:1;fill-rule:nonzero;stroke:none"
       transform="matrix(1.3333333,0,0,-1.3333333,323.6184,236.61933)"
       clip-path="url(#clipPath37)" />
    <g
       opacity="0.740005"
       id="g39"
       clip-path="url(#clipPath40)">
      <path
         d="M 0,0 C 0.037,-0.83 0.678,-1.472 1.433,-1.435 2.188,-1.397 2.771,-0.694 2.734,0.136 2.697,0.966 2.056,1.608 1.301,1.571 0.546,1.533 -0.037,0.83 0,0"
         style="fill:#ffffff;fill-opacity:1;fill-rule:nonzero;stroke:none"
         transform="matrix(1.3333333,0,0,-1.3333333,322.92907,234.8416)"
         clip-path="url(#clipPath38)"
         id="path39" />
    </g>
    <path
       id="path41"
       d="M 0,0 C 0.088,0.22 0.082,0.206 -0.018,-0.04 0.027,0.059 0.074,0.158 0.123,0.255 0.196,0.4 0.273,0.543 0.354,0.683 0.46,0.868 0.574,1.048 0.695,1.225 0.761,1.322 1.01,1.738 0.744,1.31 0.927,1.606 1.23,1.879 1.477,2.119 1.588,2.227 1.701,2.332 1.817,2.434 1.92,2.525 2.335,2.994 1.991,2.59 2.371,3.037 3.167,3.33 3.68,3.587 3.89,3.681 3.861,3.67 3.591,3.554 3.682,3.591 3.774,3.627 3.867,3.661 4.005,3.712 4.144,3.76 4.284,3.805 4.636,3.917 4.996,4.008 5.358,4.08 5.518,4.112 5.69,4.16 5.853,4.166 5.285,4.143 6.021,4.173 6.127,4.18 6.487,4.204 6.848,4.209 7.209,4.196 7.403,4.189 7.597,4.176 7.79,4.158 7.901,4.148 8.011,4.136 8.121,4.122 L 7.897,4.151 C 8.259,4.164 8.692,4.002 9.042,3.908 9.424,3.806 9.792,3.673 10.163,3.541 c 0.22,-0.088 0.211,-0.082 -0.028,0.016 0.078,-0.034 0.156,-0.069 0.233,-0.105 0.18,-0.085 0.359,-0.174 0.535,-0.268 0.356,-0.189 0.701,-0.398 1.035,-0.623 0.145,-0.098 0.286,-0.201 0.428,-0.303 -0.391,0.284 0.198,-0.169 0.264,-0.226 0.83,-0.708 2.148,-0.875 2.952,0 0.715,0.779 0.887,2.195 0,2.952 C 12.423,7.68 8.357,8.923 4.249,8.106 0.454,7.352 -2.613,4.673 -4.026,1.11 -4.429,0.092 -3.585,-1.226 -2.568,-1.458 -1.364,-1.732 -0.432,-1.09 0,0"
       style="fill:#493f64;fill-opacity:1;fill-rule:nonzero;stroke:none"
       transform="matrix(1.3333333,0,0,-1.3333333,252.51547,245.05893)"
       clip-path="url(#clipPath42)" />
    <path
       id="path43"
       d="m 227.275,148.593 c -10.352,-3.119 -16.776,-1.839 -16.776,-1.839 v 0 c -24.821,9.187 -47.47,-2.446 -47.47,-2.446 v 0 c -0.25,-20.864 8.345,-27.861 8.345,-27.861 v 0 c 18.571,-12.517 34.663,0.602 38.591,5.002 v 0 c 3.927,4.399 0.68,17.935 9.898,18.945 v 0 c 9.218,1.01 10.839,-15.019 13.413,-17.383 v 0 c 2.575,-2.363 27.549,-13.959 37.475,3.115 v 0 c 9.926,17.074 1.945,30.533 1.945,30.533 v 0 c -4.353,0.378 -8.182,0.546 -11.574,0.546 v 0 c -20.197,10e-4 -24.983,-5.941 -33.847,-8.612 m 6.462,-10.861 c -2.009,7.278 3.091,11.034 16.806,12.647 v 0 c 13.714,1.613 18.002,-4.312 18.002,-4.312 v 0 c 2.546,-13.17 -0.322,-20.21 -14.641,-22.33 v 0 c -1.472,-0.219 -2.834,-0.321 -4.094,-0.321 v 0 c -10.997,0 -14.269,7.788 -16.073,14.316 m -63.241,-1.205 c 0,0 2.903,6.713 16.642,8.108 v 0 c 13.738,1.395 19.532,-1.167 19.145,-8.706 v 0 c -0.386,-7.54 -2.216,-17.001 -16.656,-18.033 v 0 c -1.022,-0.073 -1.996,-0.109 -2.919,-0.109 v 0 c -12.116,-0.001 -15.871,6.279 -16.212,18.74"
       transform="matrix(1.3333333,0,0,-1.3333333,0,419.668)"
       style="fill:url(#linearGradient43);stroke:none" />
    <path
       id="path44"
       d="m 0,0 c -0.501,-3.414 0.847,-6.837 3.593,-8.959 2.588,-1.999 6.05,-2.803 9.271,-2.314 1.871,0.285 3.422,1.239 4.564,2.732 0.574,0.751 0.141,2.047 -0.646,2.463 -0.952,0.503 -1.85,0.156 -2.463,-0.646 0.237,0.31 -0.177,-0.163 -0.231,-0.214 -0.101,-0.095 -0.357,-0.274 -0.101,-0.1 -0.165,-0.112 -0.331,-0.219 -0.508,-0.314 -0.127,-0.068 -0.404,-0.184 -0.112,-0.069 -0.328,-0.129 -0.666,-0.228 -1.011,-0.3 -0.088,-0.019 -0.727,-0.093 -0.273,-0.054 -0.153,-0.013 -0.304,-0.029 -0.457,-0.037 -0.354,-0.019 -0.708,-0.016 -1.062,0.003 -0.22,0.012 -0.438,0.035 -0.657,0.055 C 9.476,-7.713 10.098,-7.8 9.71,-7.725 9.317,-7.649 8.926,-7.575 8.54,-7.47 8.319,-7.409 8.101,-7.342 7.885,-7.268 7.777,-7.231 7.669,-7.192 7.562,-7.151 7.384,-7.08 7.35,-7.067 7.459,-7.113 7.569,-7.16 7.535,-7.145 7.36,-7.067 7.256,-7.018 7.153,-6.969 7.05,-6.917 6.871,-6.826 6.695,-6.729 6.522,-6.626 6.349,-6.523 6.179,-6.415 6.012,-6.3 5.917,-6.234 5.823,-6.167 5.73,-6.097 5.842,-6.182 5.849,-6.185 5.753,-6.107 5.455,-5.853 5.173,-5.586 4.914,-5.293 4.866,-5.239 4.526,-4.798 4.732,-5.083 4.619,-4.927 4.511,-4.768 4.408,-4.604 4.305,-4.44 4.207,-4.272 4.116,-4.1 4.086,-4.043 3.853,-3.564 3.92,-3.713 3.986,-3.86 3.793,-3.368 3.771,-3.304 3.71,-3.118 3.655,-2.931 3.608,-2.742 3.561,-2.552 3.523,-2.361 3.488,-2.169 3.557,-2.551 3.473,-1.983 3.468,-1.9 3.456,-1.705 3.452,-1.51 3.458,-1.315 3.46,-1.242 3.529,-0.566 3.471,-0.957 3.608,-0.03 3.242,1.023 2.214,1.257 1.36,1.452 0.146,0.996 0,0"
       style="fill:#493f64;fill-opacity:1;fill-rule:nonzero;stroke:none"
       transform="matrix(1.3333333,0,0,-1.3333333,274.34667,268.48333)"
       clip-path="url(#clipPath45)" />
    <path
       id="path46"
       d="m 0,0 c 3.178,-2.502 8.027,-2.34 11.323,-0.099 3.392,2.307 5.012,6.355 4.393,10.371 -0.144,0.934 -1.364,1.533 -2.214,1.257 C 12.485,11.2 12.09,10.315 12.244,9.315 12.186,9.697 12.261,9.119 12.266,9.041 12.279,8.846 12.286,8.65 12.284,8.454 12.283,8.286 12.277,8.119 12.265,7.951 12.259,7.849 12.213,7.439 12.258,7.763 12.204,7.377 12.117,6.993 12.009,6.619 11.963,6.459 11.912,6.299 11.857,6.142 11.83,6.063 11.674,5.662 11.796,5.951 11.646,5.596 11.465,5.252 11.266,4.922 11.181,4.781 11.093,4.643 11,4.507 10.951,4.434 10.701,4.103 10.894,4.346 10.66,4.052 10.403,3.774 10.128,3.517 10.004,3.401 9.876,3.291 9.747,3.181 9.583,3.049 9.572,3.04 9.712,3.154 9.644,3.104 9.576,3.056 9.506,3.01 9.208,2.807 8.897,2.624 8.575,2.462 8.552,2.45 8.064,2.221 8.404,2.369 8.228,2.292 8.045,2.229 7.863,2.169 7.525,2.056 7.18,1.963 6.831,1.893 6.67,1.86 6.508,1.831 6.345,1.808 6.746,1.865 6.169,1.802 6.089,1.797 5.735,1.775 5.379,1.774 5.024,1.794 4.86,1.803 4.697,1.818 4.534,1.836 4.941,1.792 4.334,1.874 4.253,1.891 3.878,1.967 3.501,2.067 3.145,2.21 3.437,2.092 2.984,2.296 2.928,2.326 2.869,2.358 2.338,2.709 2.546,2.546 1.807,3.127 0.711,3.32 0,2.546 -0.595,1.897 -0.79,0.622 0,0"
       style="fill:#493f64;fill-opacity:1;fill-rule:nonzero;stroke:none"
       transform="matrix(1.3333333,0,0,-1.3333333,294.0084,280.84813)"
       clip-path="url(#clipPath47)" />
    <path
       id="path48"
       d="m 0,0 c -0.189,-1.498 -0.183,-3.011 0.016,-4.508 -0.009,-0.247 0.043,-0.479 0.155,-0.693 0.073,-0.223 0.197,-0.416 0.373,-0.579 0.312,-0.313 0.824,-0.548 1.272,-0.528 0.466,0.021 0.949,0.174 1.273,0.528 0.298,0.324 0.589,0.813 0.527,1.272 C 3.417,-3.011 3.411,-1.498 3.6,0 3.654,0.424 3.36,0.985 3.073,1.273 2.761,1.585 2.248,1.82 1.8,1.8 1.335,1.779 0.852,1.626 0.527,1.273 0.433,1.151 0.34,1.03 0.246,0.909 0.083,0.628 0.001,0.325 0,0"
       style="fill:#493f64;fill-opacity:1;fill-rule:nonzero;stroke:none"
       transform="matrix(1.3333333,0,0,-1.3333333,292.85387,271.4368)"
       clip-path="url(#clipPath49)" />
    <path
       id="path50"
       d="m 0,0 c 0.157,-3.566 -6.019,-8.825 -9.092,-8.978 -3.308,-0.164 -9.695,4.681 -9.843,8.036 -0.19,4.292 5.783,5.94 9.219,6.11 C -6.388,5.334 -0.161,3.66 0,0"
       style="fill:#493f64;fill-opacity:1;fill-rule:nonzero;stroke:none"
       transform="matrix(1.3333333,0,0,-1.3333333,307.9964,262.538)"
       clip-path="url(#clipPath51)" />
    <g
       opacity="0.289993"
       id="g53"
       clip-path="url(#clipPath54)">
      <path
         d="m 0,0 c 0,0 -8.235,2.121 -14.547,-1.708 0,0 8.182,3.922 14.634,-0.256 0,0 1.111,0.899 -0.087,1.964"
         style="fill:#ffffff;fill-opacity:1;fill-rule:nonzero;stroke:none"
         transform="matrix(1.3333333,0,0,-1.3333333,304.26547,259.94253)"
         clip-path="url(#clipPath52)"
         id="path53" />
    </g>
    <path
       id="path57"
       d="m 204.89,205.904 c 0,0 -23.366,-15.424 -32.88,-20.807 v 0 c -9.513,-5.384 -9.171,-12.324 -9.171,-12.324 v 0 l 2.335,-27.424 107.111,12.724 c 0,0 -1.178,13.832 -2.124,24.938 v 0 c -0.946,11.108 -13.981,14.885 -13.981,14.885 v 0 c 0,0 -20.95,5.95 -32.502,9.874 v 0 c -2.924,0.994 -5.571,1.365 -7.895,1.365 v 0 c -6.856,0 -10.893,-3.231 -10.893,-3.231"
       transform="matrix(1.3333333,0,0,-1.3333333,0,419.668)"
       style="fill:url(#linearGradient57);stroke:none" />
    <path
       id="path58"
       d="m 0,0 -1.897,24.144 c 0,0 -0.299,6.032 8.12,10.716 8.418,4.684 29.098,18.103 29.098,18.103 0,0 6.403,5.037 16.621,1.633 10.218,-3.405 28.747,-8.564 28.747,-8.564 0,0 11.53,-3.275 12.361,-12.928 0.831,-9.653 1.828,-21.232 1.828,-21.232 z"
       style="fill:#ffffff;fill-opacity:1;fill-rule:nonzero;stroke:none"
       transform="matrix(1.3333333,0,0,-1.3333333,230.00067,224.70827)"
       clip-path="url(#clipPath59)" />
    <g
       opacity="0.100006"
       id="g61"
       clip-path="url(#clipPath62)">
      <path
         d="m 0,0 c 0,0 -0.299,6.032 8.12,10.716 8.419,4.684 29.098,18.103 29.098,18.103 0,0 0.906,0.712 2.578,1.42 -9.399,2.525 -15.224,-2.049 -15.224,-2.049 0,0 -20.679,-13.419 -29.098,-18.103 -8.419,-4.684 -8.12,-10.716 -8.12,-10.716 l 1.897,-24.144 12.594,3.344 z"
         style="fill:#1e1f1d;fill-opacity:1;fill-rule:nonzero;stroke:none"
         transform="matrix(1.3333333,0,0,-1.3333333,244.33227,191.67787)"
         clip-path="url(#clipPath60)"
         id="path61" />
    </g>
    <path
       id="path63"
       d="m 0,0 7.213,0.891 7.053,-8.81 4.699,10.261 7.213,0.891 3.041,-24.631 -6.79,-0.838 -1.747,14.144 -5.108,-10.418 -0.141,-0.018 -7.445,8.797 1.738,-14.074 -6.685,-0.825 z"
       style="fill:#eb5935;fill-opacity:1;fill-rule:nonzero;stroke:none"
       transform="matrix(1.3333333,0,0,-1.3333333,270.0616,163.8096)"
       clip-path="url(#clipPath64)" />
    <path
       id="path65"
       d="M 238.495,166.974 C 213.033,164.445 172.5,146.219 172.5,146.219 v 0 l 100.032,11.879 c 0,0 10.733,4.236 16.85,7.063 v 0 c 6.116,2.827 5.168,5.163 -1.489,5.77 v 0 c -0.804,0.073 -1.763,0.108 -2.873,0.108 v 0 c -8.079,0 -24.138,-1.841 -46.525,-4.065"
       transform="matrix(1.3333333,0,0,-1.3333333,0,419.668)"
       style="fill:url(#linearGradient65);stroke:none" />
    <g
       opacity="0.5"
       id="g67"
       clip-path="url(#clipPath68)">
      <path
         d="m 0,0 110.556,-8.313 c 0,0 0.033,0.871 -0.217,2.917 0,0 1.659,8.395 -2.816,16.705 l -2.043,0.085 1.878,1.354 z"
         style="fill:#28265b;fill-opacity:1;fill-rule:nonzero;stroke:none"
         transform="matrix(1.3333333,0,0,-1.3333333,220.23187,225.8688)"
         clip-path="url(#clipPath66)"
         id="path67" />
    </g>
  </g>
</svg>
