<!DOCTYPE svg PUBLIC "-//W3C//DTD SVG 1.1//EN" "http://www.w3.org/Graphics/SVG/1.1/DTD/svg11.dtd">
<!-- Uploaded to: SVG Repo, www.svgrepo.com, Transformed by: SVG Repo Mixer Tools -->
<svg fill="#EB5A35" width="800px" height="800px" viewBox="0 0 1024 1024" xmlns="http://www.w3.org/2000/svg" stroke="#EB5A35">
<g id="SVGRepo_bgCarrier" stroke-width="0"/>
<g id="SVGRepo_tracerCarrier" stroke-linecap="round" stroke-linejoin="round"/>
<g id="SVGRepo_iconCarrier">
<path d="M512 768a256 256 0 1 1 0-512 256 256 0 0 1 0 512zm-27-168c-8 7-11 16-11 27s3 20 11 27c7 8 16 11 27 11s20-3 28-11c8-7 11-16 11-27s-3-20-11-27c-8-8-17-11-28-11s-20 4-27 11zm50-47l15-195h-76l15 195h46z"/>
</g>
</svg>